# xmcd CD database file
#
# Track frame offsets:
#	150
#	26127
#	59598
#	86492
#	123374
#
# Disc length: 3207 seconds
#
# Revision: 2
# Processed by: cddbd v1.5.1PL0 Copyright (c) Steve Scherf et al.
# Submitted via: CDex 1.51
#
DISCID=3e0c8505
DTITLE=Aurio Corrá - Luzes
DYEAR=2000
DGENRE=New Age
TTITLE0=Ursa Maior
TTITLE1=Orion
TTITLE2=Antares
TTITLE3=Pictor
TTITLE4=Estrela Polar (Silêncio, Luzes, Expansão, Relax)
EXTD=YEAR: 2000
EXTT0=
EXTT1=
EXTT2=
EXTT3=
EXTT4=
PLAYORDER=
